<?xml version="1.0" standalone="no"?>
<!DOCTYPE svg PUBLIC "-//W3C//DTD SVG 20010904//EN"
 "http://www.w3.org/TR/2001/REC-SVG-20010904/DTD/svg10.dtd">
<svg version="1.0" xmlns="http://www.w3.org/2000/svg"
 width="252.000000pt" height="92.000000pt" viewBox="0 0 252.000000 92.000000"
 preserveAspectRatio="xMidYMid meet">
<metadata>
Created by potrace 1.15, written by Peter Selinger 2001-2017
</metadata>
<g transform="translate(0.000000,92.000000) scale(0.100000,-0.100000)"
fill="#000000" stroke="none">
<path d="M145 891 c-45 -11 -74 -32 -98 -71 -21 -34 -22 -43 -22 -360 0 -309
1 -327 20 -360 12 -19 36 -43 55 -55 35 -20 47 -20 1155 -20 1108 0 1120 0
1155 20 19 12 43 36 55 55 19 33 20 51 20 360 0 309 -1 327 -20 360 -12 19
-36 43 -55 55 -35 20 -48 20 -1135 22 -605 0 -1113 -2 -1130 -6z m2255 -37
c59 -35 60 -41 60 -394 0 -353 -1 -359 -60 -394 -26 -15 -129 -16 -1145 -16
-1016 0 -1119 1 -1145 16 -59 36 -60 41 -60 399 l0 327 39 39 39 39 1122 0
c1021 0 1124 -1 1150 -16z"/>
<path d="M835 660 c-16 -4 -22 -8 -13 -9 27 -2 38 -34 38 -111 l0 -71 -22 15
c-54 38 -147 5 -175 -61 -47 -114 42 -217 159 -186 30 8 38 7 38 -3 0 -8 10
-13 23 -13 32 2 85 16 65 18 -32 2 -38 36 -38 235 l0 196 -22 -1 c-13 -1 -36
-5 -53 -9z m4 -196 c17 -21 21 -41 21 -93 0 -97 -29 -141 -83 -127 -70 17 -91
157 -32 220 31 34 68 34 94 0z"/>
<path d="M1487 656 c-125 -45 -190 -187 -138 -301 31 -69 122 -135 187 -135 6
0 19 -9 30 -21 44 -49 117 -63 178 -34 34 16 66 61 66 92 -1 14 -4 12 -16 -9
-8 -15 -23 -32 -34 -38 -26 -14 -80 -12 -109 4 l-25 14 40 20 c50 26 78 56
103 112 79 173 -100 360 -282 296z m159 -27 c61 -57 89 -174 64 -264 -7 -25
-29 -64 -49 -86 l-36 -40 -49 26 c-30 15 -66 25 -92 25 -38 0 -43 3 -60 38
-28 54 -26 183 3 237 22 41 56 78 83 88 33 14 110 0 136 -24z"/>
<path d="M276 646 c17 -8 34 -21 38 -31 8 -22 8 -318 0 -340 -4 -10 -21 -23
-38 -31 -28 -12 -11 -13 150 -14 l182 0 7 56 c4 31 5 57 3 60 -3 2 -12 -14
-22 -36 -20 -45 -58 -70 -108 -70 -85 0 -108 30 -108 140 l0 70 28 0 c31 0 55
-21 71 -60 7 -19 10 -4 10 65 -1 82 -2 87 -12 57 -15 -39 -32 -52 -69 -52
l-28 0 0 95 0 95 60 0 c73 0 113 -18 130 -60 17 -41 23 -32 15 24 l-7 46 -167
0 c-148 -1 -163 -2 -135 -14z"/>
<path d="M1826 653 c40 -8 64 -49 132 -232 38 -100 73 -181 78 -181 5 1 45 88
88 192 67 161 84 193 110 209 l31 19 -75 -1 c-54 0 -69 -3 -53 -9 41 -17 38
-49 -20 -196 -32 -82 -58 -133 -61 -124 -35 88 -96 268 -96 282 0 9 12 24 28
32 25 14 20 15 -78 14 -58 0 -95 -3 -84 -5z"/>
<path d="M998 484 c20 -14 22 -23 22 -114 0 -95 1 -99 26 -119 32 -25 94 -28
129 -5 23 15 25 15 25 0 0 -12 10 -16 47 -16 46 0 47 1 25 16 -21 14 -22 22
-22 135 l0 119 -47 0 c-46 0 -47 -1 -25 -16 20 -14 22 -24 22 -103 0 -103 -19
-141 -70 -141 -49 0 -60 29 -60 152 l0 108 -47 0 c-46 0 -47 -1 -25 -16z"/>
</g>
</svg>
